<mxfile host="app.diagrams.net" agent="Mozilla/5.0 (Windows NT 10.0; Win64; x64) AppleWebKit/537.36 (KHTML, like Gecko) Chrome/132.0.0.0 Safari/537.36" version="26.0.14">
  <diagram name="Página-1" id="pF_YMQTmvhQo9pJe7o1d">
    <mxGraphModel dx="1050" dy="565" grid="1" gridSize="10" guides="1" tooltips="1" connect="1" arrows="1" fold="1" page="1" pageScale="1" pageWidth="827" pageHeight="1169" math="0" shadow="0">
      <root>
        <mxCell id="0" />
        <mxCell id="1" parent="0" />
        <mxCell id="71HRb6KY2Orhx7eFvhEl-4" value="" style="edgeStyle=orthogonalEdgeStyle;rounded=0;orthogonalLoop=1;jettySize=auto;html=1;" edge="1" parent="1" source="71HRb6KY2Orhx7eFvhEl-1" target="71HRb6KY2Orhx7eFvhEl-3">
          <mxGeometry relative="1" as="geometry" />
        </mxCell>
        <mxCell id="71HRb6KY2Orhx7eFvhEl-1" value="Inicio" style="ellipse;whiteSpace=wrap;html=1;fillColor=#d5e8d4;strokeColor=#82b366;" vertex="1" parent="1">
          <mxGeometry x="40" y="20" width="120" height="80" as="geometry" />
        </mxCell>
        <mxCell id="71HRb6KY2Orhx7eFvhEl-6" value="" style="edgeStyle=orthogonalEdgeStyle;rounded=0;orthogonalLoop=1;jettySize=auto;html=1;" edge="1" parent="1" source="71HRb6KY2Orhx7eFvhEl-3" target="71HRb6KY2Orhx7eFvhEl-5">
          <mxGeometry relative="1" as="geometry" />
        </mxCell>
        <mxCell id="71HRb6KY2Orhx7eFvhEl-3" value="Recebe o 1º numero" style="shape=parallelogram;perimeter=parallelogramPerimeter;whiteSpace=wrap;html=1;fixedSize=1;fillColor=#ffe6cc;strokeColor=#d79b00;rounded=1;" vertex="1" parent="1">
          <mxGeometry x="45" y="150" width="110" height="60" as="geometry" />
        </mxCell>
        <mxCell id="71HRb6KY2Orhx7eFvhEl-8" value="" style="edgeStyle=orthogonalEdgeStyle;rounded=0;orthogonalLoop=1;jettySize=auto;html=1;" edge="1" parent="1" source="71HRb6KY2Orhx7eFvhEl-5" target="71HRb6KY2Orhx7eFvhEl-7">
          <mxGeometry relative="1" as="geometry" />
        </mxCell>
        <mxCell id="71HRb6KY2Orhx7eFvhEl-5" value="Recebe o 2º numero" style="shape=parallelogram;perimeter=parallelogramPerimeter;whiteSpace=wrap;html=1;fixedSize=1;fillColor=#ffe6cc;strokeColor=#d79b00;rounded=1;" vertex="1" parent="1">
          <mxGeometry x="45" y="250" width="110" height="60" as="geometry" />
        </mxCell>
        <mxCell id="71HRb6KY2Orhx7eFvhEl-10" value="" style="edgeStyle=orthogonalEdgeStyle;rounded=0;orthogonalLoop=1;jettySize=auto;html=1;" edge="1" parent="1" source="71HRb6KY2Orhx7eFvhEl-7" target="71HRb6KY2Orhx7eFvhEl-9">
          <mxGeometry relative="1" as="geometry" />
        </mxCell>
        <mxCell id="71HRb6KY2Orhx7eFvhEl-7" value="Realizar soma dos nº obtidos" style="rounded=1;whiteSpace=wrap;html=1;fillColor=#dae8fc;strokeColor=#6c8ebf;" vertex="1" parent="1">
          <mxGeometry x="210" y="250" width="120" height="60" as="geometry" />
        </mxCell>
        <mxCell id="71HRb6KY2Orhx7eFvhEl-12" value="" style="edgeStyle=orthogonalEdgeStyle;rounded=0;orthogonalLoop=1;jettySize=auto;html=1;" edge="1" parent="1" source="71HRb6KY2Orhx7eFvhEl-9" target="71HRb6KY2Orhx7eFvhEl-11">
          <mxGeometry relative="1" as="geometry" />
        </mxCell>
        <mxCell id="71HRb6KY2Orhx7eFvhEl-9" value="&amp;nbsp; &amp;nbsp;Exibe o resultado da soma" style="shape=display;whiteSpace=wrap;html=1;size=0.16666666666666666;fillColor=#ffe6cc;strokeColor=#d79b00;" vertex="1" parent="1">
          <mxGeometry x="400" y="247.5" width="120" height="65" as="geometry" />
        </mxCell>
        <mxCell id="71HRb6KY2Orhx7eFvhEl-11" value="Fim" style="ellipse;whiteSpace=wrap;html=1;fillColor=#f8cecc;strokeColor=#b85450;" vertex="1" parent="1">
          <mxGeometry x="560" y="245" width="100" height="70" as="geometry" />
        </mxCell>
      </root>
    </mxGraphModel>
  </diagram>
</mxfile>
